<svg width="520" height="268" viewBox="0 0 520 268" xmlns="http://www.w3.org/2000/svg" font-family="Barlow, system-ui, sans-serif">
                  <defs>
                    <symbol id="mm-ai-icon" viewBox="0 0 24 24"><path fill="currentColor" d="M12,7.534l0.84,2.519l0.277,0.83l0.83,0.277L16.466,12l-2.519,0.84l-0.83,0.277l-0.277,0.83L12,16.466l-0.84-2.519 l-0.277-0.83l-0.83-0.277L7.534,12l2.519-0.84l0.83-0.277l0.277-0.83L12,7.534 M12,2L9.5,9.5L2,12l7.5,2.5L12,22l2.5-7.5L22,12 l-7.5-2.5L12,2L12,2z M5,2L4.34,4.34L2,5l2.34,0.66L5,8l0.66-2.34L8,5L5.66,4.34L5,2L5,2z M19,16l-0.66,2.34L16,19l2.34,0.66L19,22 l0.66-2.34L22,19l-2.34-0.66L19,16L19,16z"/></symbol>
                  </defs>
                  <rect width="520" height="268" fill="#FFFFFF"/>
                  <!-- Channel header -->
                  <text x="20" y="30" fill="#3F4350" font-size="15" font-weight="700">Sales: General Questions</text>
                  <path d="M214 24 L218 28 L222 24" fill="none" stroke="#989AA3" stroke-width="1.5" stroke-linecap="round" stroke-linejoin="round"/>
                  <!-- AI Actions button (active) -->
                  <rect x="248" y="12" width="28" height="28" rx="4" fill="#E8F0FC" stroke="#1C58D9" stroke-width="1.5"/>
                  <g transform="translate(254,18)" color="#1C58D9"><use href="#mm-ai-icon" width="16" height="16"/></g>
                  <rect y="48" width="520" height="1" fill="rgba(63,67,80,0.16)"/>
                  <!-- Callout arrow to AI button -->
                  <path d="M262 44 V56" stroke="#FFBC1F" stroke-width="1.5" stroke-dasharray="3 2"/>
                  <polygon points="257,56 262,62 267,56" fill="#FFBC1F"/>
                  <!-- AI Actions popover -->
                  <rect x="140" y="66" width="300" height="186" rx="8" fill="#FFFFFF" stroke="rgba(63,67,80,0.16)"/>
                  <rect x="152" y="78" width="276" height="36" rx="4" fill="#FFFFFF" stroke="#1C58D9" stroke-width="1.5"/>
                  <g transform="translate(162,87)" color="#989AA3"><use href="#mm-ai-icon" width="16" height="16"/></g>
                  <text x="186" y="101" fill="#989AA3" font-size="12">Ask Agents about this channel...</text>
                  <path d="M404 100 L412 96 L404 92 L406 96 Z" fill="#989AA3"/>
                  <text x="164" y="140" fill="#3F4350" font-size="13">Summarize unreads</text>
                  <text x="164" y="168" fill="#3F4350" font-size="13">Summarize last 7 days</text>
                  <text x="164" y="196" fill="#3F4350" font-size="13">Summarize last 14 days</text>
                  <text x="164" y="224" fill="#3F4350" font-size="13">Select date range to summarize</text>
                </svg>