<svg width="520" height="120" viewBox="0 0 520 120" xmlns="http://www.w3.org/2000/svg" font-family="Barlow, system-ui, sans-serif">
                  <rect width="520" height="120" fill="#FFFFFF"/>
                  <rect y="36" width="520" height="84" fill="rgba(63,67,80,0.04)"/>
                  <circle cx="32" cy="78" r="14" fill="#C5D2EC"/>
                  <text x="32" y="82" text-anchor="middle" fill="#1E325C" font-size="9" font-weight="700">MK</text>
                  <text x="54" y="64" fill="#3F4350" font-size="12" font-weight="600">Maya K.</text>
                  <text x="112" y="64" fill="#989AA3" font-size="11">Yesterday 2:14 PM</text>
                  <text x="54" y="82" fill="#3F4350" font-size="12">The staging deployment failed — see thread for details.</text>
                  <text x="54" y="98" fill="#3F4350" font-size="12">We need a decision before EOD on whether to roll back.</text>
                  <!-- Message actions toolbar -->
                  <rect x="300" y="8" width="196" height="32" rx="6" fill="#FFFFFF" stroke="rgba(63,67,80,0.24)" filter="drop-shadow(0 2px 4px rgba(0,0,0,0.08))"/>
                  <!-- Add reaction -->
                  <g fill="none" stroke="#5A5A5A" stroke-width="1.4" stroke-linecap="round">
                    <circle cx="320" cy="24" r="7"/>
                    <circle cx="317.5" cy="22" r="0.8" fill="#5A5A5A" stroke="none"/>
                    <circle cx="322.5" cy="22" r="0.8" fill="#5A5A5A" stroke="none"/>
                    <path d="M317 26.5c1 1.4 5 1.4 6 0"/>
                    <path d="M326 17.5v4M324 19.5h4"/>
                  </g>
                  <!-- Save / bookmark -->
                  <path d="M342 16.5h8v15l-4-3-4 3z" fill="none" stroke="#5A5A5A" stroke-width="1.4" stroke-linejoin="round"/>
                  <!-- AI Actions sparkle (hovered) -->
                  <rect x="360" y="12" width="24" height="24" rx="4" fill="#F0F0F0"/>
                  <g transform="translate(364,16)" color="#5A5A5A"><use href="#mm-ai-icon" width="16" height="16"/></g>
                  <!-- Apps grid -->
                  <g fill="none" stroke="#5A5A5A" stroke-width="1.4">
                    <rect x="396" y="18" width="5" height="5" rx="0.5"/>
                    <rect x="403" y="18" width="5" height="5" rx="0.5"/>
                    <rect x="396" y="25" width="5" height="5" rx="0.5"/>
                    <rect x="403" y="25" width="5" height="5" rx="0.5"/>
                  </g>
                  <!-- Reply -->
                  <path d="M432 20h6c3 0 5 2 5 5v1M432 20l4-3.5M432 20l4 3.5" fill="none" stroke="#5A5A5A" stroke-width="1.4" stroke-linecap="round" stroke-linejoin="round"/>
                  <!-- More -->
                  <g fill="#5A5A5A">
                    <circle cx="460" cy="24" r="1.4"/>
                    <circle cx="466" cy="24" r="1.4"/>
                    <circle cx="472" cy="24" r="1.4"/>
                  </g>
                  <!-- Arrow pointing up at sparkle -->
                  <path d="M372 56 V44" stroke="#FFBC1F" stroke-width="1.5" stroke-dasharray="3 2"/>
                  <polygon points="367,44 372,38 377,44" fill="#FFBC1F"/>
                </svg>