<svg width="520" height="168" viewBox="0 0 520 168" xmlns="http://www.w3.org/2000/svg" font-family="Barlow, system-ui, sans-serif">
                  <rect width="520" height="168" fill="#FFFFFF"/>
                  <!-- Calls avatar -->
                  <circle cx="32" cy="32" r="14" fill="#1FAD67"/>
                  <g transform="translate(22.5,22.5) scale(0.79)">
                    <path fill="#FFFFFF" d="M6.62 10.79c1.44 2.83 3.76 5.14 6.59 6.59l2.2-2.2c.27-.27.67-.36 1.02-.24 1.12.37 2.33.57 3.57.57.55 0 1 .45 1 1V20c0 .55-.45 1-1 1-9.39 0-17-7.61-17-17 0-.55.45-1 1-1h3.5c.55 0 1 .45 1 1 0 1.25.2 2.45.57 3.57.11.35.03.74-.25 1.02l-2.2 2.2z"/>
                  </g>
                  <!-- Header -->
                  <text x="56" y="28" fill="#3F4350" font-size="13" font-weight="700">Calls</text>
                  <rect x="96" y="16" width="32" height="16" rx="3" fill="#F0F0F0"/>
                  <text x="112" y="28" text-anchor="middle" fill="#5A5A5A" font-size="9" font-weight="700">BOT</text>
                  <text x="136" y="28" fill="#989AA3" font-size="11">2h ago</text>
                  <!-- Message -->
                  <text x="56" y="50" fill="#3F4350" font-size="13">Here's the call transcription</text>
                  <!-- Create meeting summary button -->
                  <rect x="56" y="62" width="178" height="28" rx="4" fill="#F4F4F4"/>
                  <g transform="translate(68,69)" color="#5A5A5A"><use href="#mm-ai-icon" width="14" height="14"/></g>
                  <text x="90" y="81" fill="#3F4350" font-size="12" font-weight="600">Create meeting summary</text>
                  <!-- Transcription file card -->
                  <rect x="56" y="102" width="280" height="48" rx="6" fill="#FFFFFF" stroke="rgba(63,67,80,0.16)"/>
                  <g transform="translate(70,114)" fill="none" stroke="#989AA3" stroke-width="1.4" stroke-linejoin="round">
                    <path d="M4 2 h10 l4 4 v14 H4 Z"/>
                    <path d="M14 2 v4 h4"/>
                    <path d="M8 12 h8 M8 16 h8 M8 20 h5" stroke-linecap="round"/>
                  </g>
                  <text x="100" y="124" fill="#3F4350" font-size="12" font-weight="600">Call_standup_2026-07-17...</text>
                  <text x="100" y="140" fill="#989AA3" font-size="11">TXT 104B</text>
                </svg>